<?xml version="1.0" encoding="utf-8"?>
<svg version="1.2" baseProfile="tiny-ps" xmlns="http://www.w3.org/2000/svg" width="512px" height="512px" viewBox="0 0 512 512" preserveAspectRatio="xMidYMid meet">
 <g fill="#414270">
  <path d="M184 456 c-62.1 -2.8 -67.8 -3.2 -82 -6.4 -3.6 -0.9 -8.7 -1.5 -11.5 -1.6 -5.9 0 -18.8 -2.2 -26.5 -4.5 -21.7 -6.6 -39.2 -23.7 -44.5 -43.5 -1.9 -7.2 -1.9 -24.8 0 -32 2.7 -10.1 7.4 -18 16.5 -27.1 10.2 -10.3 18.5 -14.8 28.7 -15.7 7.4 -0.6 14.8 1.7 15.8 4.9 1 3.1 -3.1 8.5 -11.4 14.8 -16.5 12.6 -23.1 22.4 -23.1 34.3 0 15.2 8.3 26.5 24 32.6 7.9 3 26 6.4 27.9 5.2 0.6 -0.3 1.5 -5.1 2.1 -10.6 1.8 -18.4 4.6 -44.3 9.1 -83.1 2 -17.8 2.9 -25.1 4 -33.7 l1.1 -8.9 9.2 0.7 c5 0.3 13.4 1 18.6 1.6 14 1.4 30.1 2.9 41.8 4 5.6 0.6 14.8 1.4 20.5 2 9.8 0.9 19.3 1.8 41.7 4 5.8 0.6 15.1 1.5 20.8 2 5.6 0.6 14.9 1.5 20.7 2 5.8 0.6 15.1 1.4 20.8 2 5.6 0.5 14.9 1.4 20.7 2 5.8 0.6 15.1 1.5 20.8 2 18.9 1.8 31.6 3 41.7 4 5.5 0.6 13.7 1.3 18.1 1.6 l8.1 0.7 0.7 5.6 c0.3 3.1 1.1 8.8 1.6 12.6 5 36.7 11.4 99.5 11.5 112.8 0 11.5 3.2 10.7 -57 14.8 -19.8 1.3 -165.3 2 -190.5 0.9z"/>
 </g>
 <g fill="#4f5089">
  <path d="M397.5 311 c-3.3 -0.4 -11.8 -1.3 -19 -2 -7.1 -0.6 -17 -1.5 -22 -2 -19.6 -2 -61.4 -6 -82.5 -8 -6.3 -0.6 -15.8 -1.5 -21 -2 -5.2 -0.5 -14.4 -1.4 -20.5 -2 -6 -0.6 -15.3 -1.5 -20.5 -2 -5.2 -0.5 -14.7 -1.4 -21 -2 -11.1 -1 -19.3 -1.8 -40.5 -3.9 -5.5 -0.6 -16 -1.6 -23.4 -2.3 l-13.3 -1.2 0.6 -4.6 c1.4 -9.6 2.7 -19.8 3.7 -28 0.5 -4.7 1.6 -12.5 2.4 -17.5 0.7 -4.9 1.7 -11.6 2 -14.7 0.5 -4.1 1.1 -5.8 2.3 -6.1 1.4 -0.4 1.4 -0.5 0.1 -0.6 -1.7 -0.1 -1.7 0.2 1 -17.6 0.6 -3.8 2 -12.9 3.1 -20.1 1 -7.2 2.4 -15.1 2.9 -17.5 0.5 -2.4 1.7 -8.9 2.6 -14.4 0.9 -5.5 2.7 -15.4 4 -22 1.3 -6.6 3.6 -18.5 5 -26.5 6.4 -34.5 9.5 -39.5 20.1 -32.4 9.1 6 14.7 13.5 37.8 50.1 4.2 6.7 8.5 12.5 9.6 12.8 1 0.3 5.8 -0.1 10.7 -0.9 25.1 -4.2 55.9 -4.7 79.8 -1.3 21.8 3 21.2 3 23.8 -0.6 1.3 -1.8 5.8 -9.3 9.9 -16.7 19.8 -35.7 24.2 -42.4 29.7 -45.2 4 -2 6.3 -1.2 9 3.2 2.9 4.8 11.2 42.4 15.6 70.5 0.8 5.5 2.4 15.2 3.5 21.5 2.2 12.1 4.9 29.5 8 49.5 1 6.6 2.5 16.1 3.4 21 3.9 22.8 8.4 51.1 11.7 74.5 0.5 3.6 1.2 7.7 1.5 9.3 l0.6 2.7 -7.4 -0.1 c-4 -0.1 -10 -0.5 -13.3 -0.9z m-67.5 -80.4 c0 -0.2 -1.2 -1.2 -2.7 -2.1 l-2.8 -1.8 1.9 2.1 c1.7 2 3.6 2.9 3.6 1.8z m-130.3 -2.1 c4.9 -2 7.1 -4.1 9.5 -9 1.8 -3.4 1.9 -4.3 0.8 -7.5 -1.6 -4.5 -3.6 -6.8 -8.2 -9.1 -6.8 -3.5 -12.2 -1.9 -17.3 5.1 -5.1 6.9 -1.4 17.3 7.5 20.9 3.4 1.3 3.5 1.3 7.7 -0.4z m145 -0.6 c6.6 -3.2 10.3 -9.7 8.9 -15.4 -1 -3.8 -7.2 -10.2 -11.2 -11.5 -2.9 -1 -4.1 -0.9 -8 1 -5.4 2.6 -9.8 8.7 -9.8 13.4 0 4.6 4.9 12 8.8 13.3 4.8 1.6 6.6 1.5 11.3 -0.8z m-44.7 -4.4 c-0.5 -2.2 -1 -6.2 -1.1 -9 -0.1 -4.4 -0.2 -4.7 -0.9 -2.1 -0.8 2.7 0 9.8 1.6 13.9 1.1 3 1.3 1.4 0.4 -2.8z m-143.1 -15.4 c0.1 -3.5 -0.5 -2.2 -1.2 2.4 -0.5 2.8 -0.4 3.4 0.3 2 0.5 -1.1 0.9 -3.1 0.9 -4.4z m80.1 -11 c0 -1.9 -8.3 -13.2 -11.3 -15.3 -2.9 -2.1 -2.9 -1.9 1 2.6 2.4 2.7 5.5 6.8 7 9.2 2.9 4.6 3.3 5 3.3 3.5z m-67.3 -16.6 c2.5 -1.9 4.1 -3.5 3.6 -3.5 -1.9 0 -9.9 6.8 -12.6 10.7 -3.9 5.7 -3.3 6.4 0.8 1 2 -2.6 5.6 -6.2 8.2 -8.2z"/>
 </g>
 <g fill="#ffffff">
  <path d="M247.3 261.3 c-3.6 -2.5 -2.7 -3.3 3.6 -3.3 5.5 0 6.3 -0.3 10.7 -4.1 l4.7 -4 3.1 2.9 c4.8 4.6 7.2 5.4 12.7 4.7 4.1 -0.6 4.9 -0.4 4.9 0.9 0 0.8 -1.1 2.3 -2.5 3.2 -3 1.9 -7.5 1.3 -14 -1.8 l-4.3 -2.1 -5.3 2.7 c-6 2.9 -10.3 3.2 -13.6 0.9z"/>
  <path d="M186.8 258 c-16.2 -2.8 -30.2 -16.6 -33.9 -33.8 -0.7 -3.1 -1.8 -6 -2.3 -6.4 -0.6 -0.4 -7.1 -0.8 -14.3 -0.8 -12.6 0 -13.3 -0.1 -13.3 -2 0 -1.8 0.8 -2 14.2 -2.2 l14.2 -0.3 1.6 -6.5 c1.9 -7.6 2.9 -9.6 8.2 -16.8 16.4 -22 48.5 -24.3 65.7 -4.7 6.1 7 10.5 14.7 12.2 21.3 l1.7 6.7 26.6 0.3 26.6 0.2 0.6 -2.7 c2.7 -12.6 7.7 -21.8 14.9 -28.2 2.2 -1.9 7.1 -4.9 11.1 -6.8 25.5 -12.1 56 3.7 61.5 31.8 l1.2 5.9 9.2 0 c8.4 0 9.3 0.2 9.8 2 0.5 1.9 0 2 -8.1 2 -4.8 0 -9.2 0.4 -9.9 0.8 -0.7 0.4 -1.7 3.2 -2.4 6.2 -4.8 23.1 -26.3 37.5 -50.8 34 -18.5 -2.6 -31.3 -14.8 -35.6 -33.8 l-1.7 -7.2 -26.3 0 -26.4 0 -1 3.8 c-0.5 2 -1.3 5.1 -1.7 6.7 -1.3 5.9 -6.8 14.7 -12.3 19.7 -10.5 9.6 -24.1 13.3 -39.3 10.8z m26.4 -6.8 c7.9 -3.9 15.9 -12 19.6 -19.9 2.4 -5.1 2.7 -7 2.7 -15.9 0 -9.5 -0.2 -10.3 -3.7 -17.6 -4.5 -9.1 -10.3 -14.8 -19.6 -19.1 -5.8 -2.7 -7.8 -3.1 -15.2 -3.2 -10.5 0 -15.1 1.3 -23.2 6.8 -7.5 5 -12.8 11.8 -15.9 20.1 -7.2 19.6 5 43.8 25.6 50.6 9.3 3.1 21.3 2.4 29.7 -1.8z m136.3 2.3 c14.9 -3.9 25.5 -15.7 28.9 -32.1 1.2 -5.9 1.2 -7.3 -0.5 -14 -2.1 -8.3 -1.8 -7.7 -6.7 -15.2 -10 -15.4 -31.6 -21.3 -48.6 -13.4 -20.9 9.8 -30.1 33.3 -20.6 52.5 9.2 18.7 27.8 27.3 47.5 22.2z"/>
  <path d="M188.5 231.6 c-9.6 -4.2 -13.1 -17.5 -6.9 -26.6 5 -7.5 14.6 -9.6 23.1 -5.2 10.4 5.4 12.3 20.5 3.6 28.4 -4.9 4.5 -13.9 6 -19.8 3.4z"/>
  <path d="M328.5 229.4 c-7.6 -5.9 -9.5 -13.6 -5.4 -22.2 3.6 -7.3 12 -11.3 20.4 -9.8 4.2 0.8 10.7 6.3 12.5 10.6 1.8 4.4 0.9 14 -1.8 17.7 -3 4.3 -9.7 7.3 -15.9 7.3 -4.2 0 -5.8 -0.6 -9.8 -3.6z"/>
 </g>
</svg>